<svg width="400" height="400" viewBox="0 0 400 400" fill="none" xmlns="http://www.w3.org/2000/svg">
<circle cx="200" cy="200" r="200" fill="#00B6CE"/>
<path d="M198 245.202C209.946 245.182 240.156 245.132 263.32 238.253C274.357 233.719 284.386 227.083 292.833 218.725C301.28 210.367 307.981 200.45 312.552 189.54C317.124 178.63 319.477 166.942 319.477 155.141C319.477 143.341 317.124 131.66 312.552 120.765C307.981 109.871 301.28 99.9762 292.833 91.6461C284.386 83.3159 274.357 76.7137 263.32 72.2162C240.711 63.0031 209.946 65.4649 198 65.4847" stroke="white" stroke-width="30"/>
<path d="M202.477 154.676C190.531 154.696 160.321 154.746 137.157 161.624C126.12 166.158 116.091 172.794 107.644 181.152C99.197 189.511 92.4962 199.428 87.9246 210.337C83.353 221.247 81 232.936 81 244.736C81 256.537 83.353 268.217 87.9246 279.112C92.4962 290.006 99.197 299.901 107.644 308.231C116.091 316.561 126.12 323.164 137.157 327.661C159.766 336.874 190.531 334.413 202.477 334.393" stroke="white" stroke-width="30"/>
</svg>
